<?xml version="1.0" ?><svg id="Layer_1" style="enable-background:new 0 0 512 512;" version="1.1" viewBox="0 0 512 512" xml:space="preserve" xmlns="http://www.w3.org/2000/svg" xmlns:xlink="http://www.w3.org/1999/xlink"><style type="text/css">
	.st0{fill:#232323;}
	.st1{fill:#F4908C;}
	.st2{fill:#FBD502;}
	.st3{fill:#2E4356;}
	.st4{fill:#CCE134;}
</style><g><g><g><g><g><path class="st0" d="M373,467.2H271.9V125.3H373V467.2z M285,454.1h74.9V138.5H285V454.1z"/></g><rect class="st1" height="215.3" id="XMLID_10_" width="53" x="296" y="227.8"/><g><path class="st0" d="M506,467.2H404.9V44.8H506V467.2z M418,454.1h74.9V57.9H418V454.1z"/></g><rect class="st2" height="293.7" id="XMLID_7_" width="53" x="428.9" y="149.4"/><g><path class="st0" d="M240.1,467.2H139V203.8h101.1V467.2z M152.1,454.1H227V216.9h-74.9V454.1z"/></g><rect class="st3" height="134.2" id="XMLID_4_" width="53" x="163" y="308.9"/><g><path class="st0" d="M107.1,467.2H6V284.9h101.1V467.2z M19.1,454.1H94V298H19.1V454.1z"/></g><rect class="st4" height="72.6" id="XMLID_1_" width="53" x="30.1" y="370.5"/></g></g></g></g></svg>